<svg width="255" height="55" viewBox="0 0 255 55" fill="none" xmlns="http://www.w3.org/2000/svg">
<rect width="255" height="55" rx="5" fill="#0D1661"/>
<path d="M85.9492 27.2129C85.9492 28.6126 85.7018 29.8398 85.207 30.8945C84.7122 31.9492 84.0026 32.763 83.0781 33.3359C82.1602 33.9089 81.1055 34.1953 79.9141 34.1953C78.7357 34.1953 77.6842 33.9121 76.7598 33.3457C75.8353 32.7793 75.1191 31.972 74.6113 30.9238C74.1035 29.8691 73.8464 28.6582 73.8398 27.291V26.5879C73.8398 25.1882 74.0905 23.9577 74.5918 22.8965C75.0996 21.8288 75.8125 21.0117 76.7305 20.4453C77.6549 19.8724 78.7096 19.5859 79.8945 19.5859C81.0794 19.5859 82.1309 19.8724 83.0488 20.4453C83.9733 21.0117 84.6862 21.8288 85.1875 22.8965C85.6953 23.9577 85.9492 25.1849 85.9492 26.5781V27.2129ZM82.9805 26.5684C82.9805 25.0775 82.7135 23.9447 82.1797 23.1699C81.6458 22.3952 80.8841 22.0078 79.8945 22.0078C78.9115 22.0078 78.153 22.3919 77.6191 23.1602C77.0853 23.9219 76.8151 25.0417 76.8086 26.5195V27.2129C76.8086 28.6647 77.0755 29.791 77.6094 30.5918C78.1432 31.3926 78.9115 31.793 79.9141 31.793C80.8971 31.793 81.6523 31.4089 82.1797 30.6406C82.707 29.8659 82.974 28.7396 82.9805 27.2617V26.5684ZM97.6621 25.6992H94.2734V34H91.4414V25.6992H88.1113V23.4336H97.6621V25.6992ZM109.277 34H106.445V25.7188H102.91V34H100.088V23.4336H109.277V34ZM121.947 28.8145C121.947 30.4421 121.576 31.7474 120.834 32.7305C120.098 33.707 119.102 34.1953 117.846 34.1953C116.778 34.1953 115.915 33.8242 115.258 33.082V38.0625H112.436V23.4336H115.053L115.15 24.4688C115.834 23.6484 116.726 23.2383 117.826 23.2383C119.128 23.2383 120.141 23.7201 120.863 24.6836C121.586 25.6471 121.947 26.9753 121.947 28.668V28.8145ZM119.125 28.6094C119.125 27.6263 118.949 26.8678 118.598 26.334C118.253 25.8001 117.748 25.5332 117.084 25.5332C116.199 25.5332 115.59 25.8717 115.258 26.5488V30.875C115.603 31.5716 116.218 31.9199 117.104 31.9199C118.451 31.9199 119.125 30.8164 119.125 28.6094ZM130.828 34C130.698 33.7461 130.604 33.4303 130.545 33.0527C129.861 33.8145 128.973 34.1953 127.879 34.1953C126.844 34.1953 125.984 33.8958 125.301 33.2969C124.624 32.6979 124.285 31.9427 124.285 31.0312C124.285 29.9115 124.699 29.0521 125.525 28.4531C126.359 27.8542 127.56 27.5514 129.129 27.5449H130.428V26.9395C130.428 26.4512 130.301 26.0605 130.047 25.7676C129.799 25.4746 129.406 25.3281 128.865 25.3281C128.39 25.3281 128.016 25.4421 127.742 25.6699C127.475 25.8978 127.342 26.2103 127.342 26.6074H124.52C124.52 25.9954 124.708 25.429 125.086 24.9082C125.464 24.3874 125.997 23.9805 126.688 23.6875C127.378 23.388 128.152 23.2383 129.012 23.2383C130.314 23.2383 131.346 23.5671 132.107 24.2246C132.876 24.8757 133.26 25.7936 133.26 26.9785V31.5586C133.266 32.5612 133.406 33.3197 133.68 33.834V34H130.828ZM128.494 32.0371C128.911 32.0371 129.295 31.946 129.646 31.7637C129.998 31.5749 130.258 31.3242 130.428 31.0117V29.1953H129.373C127.96 29.1953 127.208 29.6836 127.117 30.6602L127.107 30.8262C127.107 31.1777 127.231 31.4674 127.479 31.6953C127.726 31.9232 128.064 32.0371 128.494 32.0371ZM136.613 34V23.4336H141.027C142.466 23.4336 143.57 23.6875 144.338 24.1953C145.106 24.7031 145.49 25.4323 145.49 26.3828C145.49 26.8711 145.327 27.3105 145.002 27.7012C144.683 28.0853 144.214 28.3815 143.596 28.5898C144.351 28.7331 144.943 29.0163 145.373 29.4395C145.809 29.8561 146.027 30.3704 146.027 30.9824C146.027 31.9655 145.656 32.7142 144.914 33.2285C144.178 33.7428 143.107 34 141.701 34H136.613ZM139.436 29.6152V31.7441H141.711C142.707 31.7441 143.205 31.3958 143.205 30.6992C143.205 29.9896 142.73 29.6283 141.779 29.6152H139.436ZM139.436 27.7207H141.184C142.173 27.7077 142.668 27.3887 142.668 26.7637C142.668 26.3796 142.531 26.1061 142.258 25.9434C141.991 25.7806 141.581 25.6992 141.027 25.6992H139.436V27.7207ZM155.123 23.4336H157.945V34H155.123V27.4766L151.588 34H148.756V23.4336H151.588V29.9473L155.123 23.4336ZM169.873 25.6992H166.484V34H163.652V25.6992H160.322V23.4336H169.873V25.6992ZM175.316 26.5293H177.338C178.249 26.5293 179.05 26.6823 179.74 26.9883C180.43 27.2943 180.958 27.7337 181.322 28.3066C181.693 28.873 181.879 29.5339 181.879 30.2891C181.879 31.4023 181.465 32.3008 180.639 32.9844C179.818 33.6615 178.699 34 177.279 34H172.484V23.4336H175.316V26.5293ZM175.316 28.7949V31.7441H177.318C177.878 31.7441 178.308 31.6139 178.607 31.3535C178.907 31.0931 179.057 30.7383 179.057 30.2891C179.057 29.8333 178.91 29.472 178.617 29.2051C178.324 28.9316 177.891 28.7949 177.318 28.7949H175.316Z" fill="white"/>
</svg>
