<svg width="350" height="50" viewBox="0 0 350 50" fill="none" xmlns="http://www.w3.org/2000/svg">
<rect width="350" height="50" rx="5" fill="#0D1661"/>
<path d="M131.76 25.84C131.76 27.32 131.513 28.6133 131.02 29.72C130.54 30.8133 129.8 31.6667 128.8 32.28C127.8 32.8933 126.52 33.2 124.96 33.2C123.413 33.2 122.133 32.8933 121.12 32.28C120.12 31.6667 119.373 30.8067 118.88 29.7C118.4 28.5933 118.16 27.3 118.16 25.82C118.16 24.34 118.4 23.0533 118.88 21.96C119.373 20.8667 120.12 20.02 121.12 19.42C122.133 18.8067 123.42 18.5 124.98 18.5C126.527 18.5 127.8 18.8067 128.8 19.42C129.8 20.02 130.54 20.8733 131.02 21.98C131.513 23.0733 131.76 24.36 131.76 25.84ZM121.34 25.84C121.34 27.3333 121.627 28.5133 122.2 29.38C122.773 30.2333 123.693 30.66 124.96 30.66C126.253 30.66 127.18 30.2333 127.74 29.38C128.3 28.5133 128.58 27.3333 128.58 25.84C128.58 24.3333 128.3 23.1533 127.74 22.3C127.18 21.4467 126.26 21.02 124.98 21.02C123.7 21.02 122.773 21.4467 122.2 22.3C121.627 23.1533 121.34 24.3333 121.34 25.84ZM143.518 24.32H139.938V33H136.958V24.32H133.378V22.08H143.518V24.32ZM155.453 22.08V33H152.473V24.32H148.513V33H145.533V22.08H155.453ZM164.66 21.88C165.886 21.88 166.88 22.36 167.64 23.32C168.4 24.2667 168.78 25.6667 168.78 27.52C168.78 29.3733 168.386 30.7867 167.6 31.76C166.813 32.72 165.806 33.2 164.58 33.2C163.793 33.2 163.166 33.06 162.7 32.78C162.233 32.4867 161.853 32.16 161.56 31.8H161.4C161.506 32.36 161.56 32.8933 161.56 33.4V37.8H158.58V22.08H161L161.42 23.5H161.56C161.853 23.06 162.246 22.68 162.74 22.36C163.233 22.04 163.873 21.88 164.66 21.88ZM163.7 24.26C162.926 24.26 162.38 24.5 162.06 24.98C161.753 25.46 161.586 26.1933 161.56 27.18V27.5C161.56 28.5533 161.713 29.3667 162.02 29.94C162.34 30.5 162.913 30.78 163.74 30.78C164.42 30.78 164.92 30.5 165.24 29.94C165.573 29.3667 165.74 28.5467 165.74 27.48C165.74 25.3333 165.06 24.26 163.7 24.26ZM175.716 21.86C177.182 21.86 178.302 22.18 179.076 22.82C179.862 23.4467 180.256 24.4133 180.256 25.72V33H178.176L177.596 31.52H177.516C177.049 32.1067 176.556 32.5333 176.036 32.8C175.516 33.0667 174.802 33.2 173.896 33.2C172.922 33.2 172.116 32.92 171.476 32.36C170.836 31.7867 170.516 30.9133 170.516 29.74C170.516 28.58 170.922 27.7267 171.736 27.18C172.549 26.62 173.769 26.3133 175.396 26.26L177.296 26.2V25.72C177.296 25.1467 177.142 24.7267 176.836 24.46C176.542 24.1933 176.129 24.06 175.596 24.06C175.062 24.06 174.542 24.14 174.036 24.3C173.529 24.4467 173.022 24.6333 172.516 24.86L171.536 22.84C172.122 22.5333 172.769 22.2933 173.476 22.12C174.196 21.9467 174.942 21.86 175.716 21.86ZM177.296 27.94L176.136 27.98C175.176 28.0067 174.509 28.18 174.136 28.5C173.762 28.82 173.576 29.24 173.576 29.76C173.576 30.2133 173.709 30.54 173.976 30.74C174.242 30.9267 174.589 31.02 175.016 31.02C175.656 31.02 176.196 30.8333 176.636 30.46C177.076 30.0733 177.296 29.5333 177.296 28.84V27.94ZM192.986 24.94C192.986 25.5267 192.799 26.0267 192.426 26.44C192.066 26.8533 191.526 27.12 190.806 27.24V27.32C191.566 27.4133 192.173 27.6733 192.626 28.1C193.093 28.5267 193.326 29.0733 193.326 29.74C193.326 30.3667 193.159 30.9267 192.826 31.42C192.506 31.9133 191.993 32.3 191.286 32.58C190.579 32.86 189.653 33 188.506 33H183.306V22.08H188.506C189.359 22.08 190.119 22.1733 190.786 22.36C191.466 22.5333 191.999 22.8267 192.386 23.24C192.786 23.6533 192.986 24.22 192.986 24.94ZM189.966 25.18C189.966 24.5133 189.439 24.18 188.386 24.18H186.286V26.34H188.046C188.673 26.34 189.146 26.2533 189.466 26.08C189.799 25.8933 189.966 25.5933 189.966 25.18ZM190.246 29.58C190.246 29.1533 190.079 28.8467 189.746 28.66C189.413 28.46 188.913 28.36 188.246 28.36H186.286V30.94H188.306C188.866 30.94 189.326 30.84 189.686 30.64C190.059 30.4267 190.246 30.0733 190.246 29.58ZM198.764 22.08V26.4C198.764 26.6267 198.751 26.9067 198.724 27.24C198.711 27.5733 198.691 27.9133 198.664 28.26C198.651 28.6067 198.631 28.9133 198.604 29.18C198.578 29.4467 198.558 29.6333 198.544 29.74L203.584 22.08H207.164V33H204.284V28.64C204.284 28.28 204.298 27.8867 204.324 27.46C204.351 27.02 204.378 26.6133 204.404 26.24C204.444 25.8533 204.471 25.56 204.484 25.36L199.464 33H195.884V22.08H198.764ZM219.319 24.32H215.739V33H212.759V24.32H209.179V22.08H219.319V24.32ZM224.313 26.3H226.413C228.093 26.3 229.333 26.5667 230.133 27.1C230.947 27.6333 231.353 28.44 231.353 29.52C231.353 30.5733 230.98 31.42 230.233 32.06C229.487 32.6867 228.253 33 226.533 33H221.333V22.08H224.313V26.3ZM228.373 29.56C228.373 28.76 227.7 28.36 226.353 28.36H224.313V30.94H226.393C226.98 30.94 227.453 30.8333 227.813 30.62C228.187 30.4067 228.373 30.0533 228.373 29.56Z" fill="white"/>
</svg>
