<svg width="243" height="23" viewBox="0 0 243 23" fill="none" xmlns="http://www.w3.org/2000/svg">
<path d="M35.9277 12.6289C35.9277 11.0078 36.3118 9.70573 37.0801 8.72266C37.8483 7.73307 38.8542 7.23828 40.0977 7.23828C41.3346 7.23828 42.3145 7.66146 43.0371 8.50781V3H44.8438V18H43.1836L43.0957 16.8672C42.373 17.7526 41.3672 18.1953 40.0781 18.1953C38.8542 18.1953 37.8548 17.694 37.0801 16.6914C36.3118 15.6888 35.9277 14.3802 35.9277 12.7656V12.6289ZM37.7344 12.834C37.7344 14.0319 37.9818 14.9694 38.4766 15.6465C38.9714 16.3236 39.6549 16.6621 40.5273 16.6621C41.6732 16.6621 42.5098 16.1478 43.0371 15.1191V10.2656C42.4967 9.26953 41.6667 8.77148 40.5469 8.77148C39.6615 8.77148 38.9714 9.11328 38.4766 9.79688C37.9818 10.4805 37.7344 11.4928 37.7344 12.834ZM55.1797 18C55.0755 17.7917 54.9909 17.4206 54.9258 16.8867C54.0859 17.7591 53.0833 18.1953 51.918 18.1953C50.8763 18.1953 50.0202 17.9023 49.3496 17.3164C48.6855 16.724 48.3535 15.9753 48.3535 15.0703C48.3535 13.9701 48.7702 13.1172 49.6035 12.5117C50.4434 11.8997 51.6217 11.5938 53.1387 11.5938H54.8965V10.7637C54.8965 10.1322 54.7077 9.63086 54.3301 9.25977C53.9525 8.88216 53.3958 8.69336 52.6602 8.69336C52.0156 8.69336 51.4753 8.85612 51.0391 9.18164C50.6029 9.50716 50.3848 9.90104 50.3848 10.3633H48.5684C48.5684 9.83594 48.7539 9.32812 49.125 8.83984C49.5026 8.34505 50.0104 7.95443 50.6484 7.66797C51.293 7.38151 51.9993 7.23828 52.7676 7.23828C53.985 7.23828 54.9388 7.54427 55.6289 8.15625C56.319 8.76172 56.6771 9.59831 56.7031 10.666V15.5293C56.7031 16.4993 56.8268 17.2708 57.0742 17.8438V18H55.1797ZM52.1816 16.623C52.748 16.623 53.2852 16.4766 53.793 16.1836C54.3008 15.8906 54.6686 15.5098 54.8965 15.041V12.873H53.4805C51.2669 12.873 50.1602 13.5208 50.1602 14.8164C50.1602 15.3828 50.349 15.8255 50.7266 16.1445C51.1042 16.4635 51.5892 16.623 52.1816 16.623ZM66.6875 15.1973C66.6875 14.709 66.502 14.3314 66.1309 14.0645C65.7663 13.791 65.125 13.5566 64.207 13.3613C63.2956 13.166 62.5697 12.9316 62.0293 12.6582C61.4954 12.3848 61.0983 12.0592 60.8379 11.6816C60.584 11.304 60.457 10.8548 60.457 10.334C60.457 9.4681 60.8216 8.73568 61.5508 8.13672C62.2865 7.53776 63.224 7.23828 64.3633 7.23828C65.5612 7.23828 66.5312 7.54753 67.2734 8.16602C68.0221 8.78451 68.3965 9.57552 68.3965 10.5391H66.5801C66.5801 10.0443 66.3685 9.61784 65.9453 9.25977C65.5286 8.90169 65.0013 8.72266 64.3633 8.72266C63.7057 8.72266 63.1914 8.86589 62.8203 9.15234C62.4492 9.4388 62.2637 9.81315 62.2637 10.2754C62.2637 10.7116 62.4362 11.0404 62.7812 11.2617C63.1263 11.4831 63.748 11.6947 64.6465 11.8965C65.5514 12.0983 66.2839 12.3392 66.8438 12.6191C67.4036 12.8991 67.8171 13.2376 68.084 13.6348C68.3574 14.0254 68.4941 14.5039 68.4941 15.0703C68.4941 16.0143 68.1165 16.7728 67.3613 17.3457C66.6061 17.9121 65.6263 18.1953 64.4219 18.1953C63.5755 18.1953 62.8268 18.0456 62.1758 17.7461C61.5247 17.4466 61.0137 17.0299 60.6426 16.4961C60.278 15.9557 60.0957 15.373 60.0957 14.748H61.9023C61.9349 15.3535 62.1758 15.8353 62.625 16.1934C63.0807 16.5449 63.6797 16.7207 64.4219 16.7207C65.1055 16.7207 65.6523 16.584 66.0625 16.3105C66.4792 16.0306 66.6875 15.6595 66.6875 15.1973ZM78.3711 18C78.2669 17.7917 78.1823 17.4206 78.1172 16.8867C77.2773 17.7591 76.2747 18.1953 75.1094 18.1953C74.0677 18.1953 73.2116 17.9023 72.541 17.3164C71.877 16.724 71.5449 15.9753 71.5449 15.0703C71.5449 13.9701 71.9616 13.1172 72.7949 12.5117C73.6348 11.8997 74.8132 11.5938 76.3301 11.5938H78.0879V10.7637C78.0879 10.1322 77.8991 9.63086 77.5215 9.25977C77.1439 8.88216 76.5872 8.69336 75.8516 8.69336C75.207 8.69336 74.6667 8.85612 74.2305 9.18164C73.7943 9.50716 73.5762 9.90104 73.5762 10.3633H71.7598C71.7598 9.83594 71.9453 9.32812 72.3164 8.83984C72.694 8.34505 73.2018 7.95443 73.8398 7.66797C74.4844 7.38151 75.1908 7.23828 75.959 7.23828C77.1764 7.23828 78.1302 7.54427 78.8203 8.15625C79.5104 8.76172 79.8685 9.59831 79.8945 10.666V15.5293C79.8945 16.4993 80.0182 17.2708 80.2656 17.8438V18H78.3711ZM75.373 16.623C75.9395 16.623 76.4766 16.4766 76.9844 16.1836C77.4922 15.8906 77.86 15.5098 78.0879 15.041V12.873H76.6719C74.4583 12.873 73.3516 13.5208 73.3516 14.8164C73.3516 15.3828 73.5404 15.8255 73.918 16.1445C74.2956 16.4635 74.7806 16.623 75.373 16.623ZM88.834 9.05469C88.5605 9.00911 88.2643 8.98633 87.9453 8.98633C86.7604 8.98633 85.9564 9.49089 85.5332 10.5V18H83.7266V7.43359H85.4844L85.5137 8.6543C86.1061 7.71029 86.946 7.23828 88.0332 7.23828C88.3848 7.23828 88.6517 7.28385 88.834 7.375V9.05469ZM95.6934 18.1953C94.2611 18.1953 93.0957 17.7266 92.1973 16.7891C91.2988 15.8451 90.8496 14.5853 90.8496 13.0098V12.6777C90.8496 11.6296 91.0482 10.6953 91.4453 9.875C91.849 9.04818 92.4089 8.40365 93.125 7.94141C93.8477 7.47266 94.6289 7.23828 95.4688 7.23828C96.8424 7.23828 97.9102 7.69076 98.6719 8.5957C99.4336 9.50065 99.8145 10.7962 99.8145 12.4824V13.2344H92.6562C92.6823 14.276 92.985 15.1191 93.5645 15.7637C94.1504 16.4017 94.8926 16.7207 95.791 16.7207C96.429 16.7207 96.9694 16.5905 97.4121 16.3301C97.8548 16.0697 98.2422 15.7246 98.5742 15.2949L99.6777 16.1543C98.7923 17.515 97.4642 18.1953 95.6934 18.1953ZM95.4688 8.72266C94.7396 8.72266 94.1276 8.98958 93.6328 9.52344C93.138 10.0508 92.832 10.793 92.7148 11.75H98.0078V11.6133C97.9557 10.6953 97.7083 9.98568 97.2656 9.48438C96.8229 8.97656 96.224 8.72266 95.4688 8.72266ZM104.623 7.43359L104.682 8.76172C105.489 7.74609 106.544 7.23828 107.846 7.23828C110.079 7.23828 111.205 8.49805 111.225 11.0176V18H109.418V11.0078C109.411 10.2461 109.236 9.68294 108.891 9.31836C108.552 8.95378 108.021 8.77148 107.299 8.77148C106.713 8.77148 106.199 8.92773 105.756 9.24023C105.313 9.55273 104.968 9.96289 104.721 10.4707V18H102.914V7.43359H104.623ZM117.4 4.875V7.43359H119.373V8.83008H117.4V15.3828C117.4 15.806 117.488 16.125 117.664 16.3398C117.84 16.5482 118.139 16.6523 118.562 16.6523C118.771 16.6523 119.057 16.6133 119.422 16.5352V18C118.947 18.1302 118.484 18.1953 118.035 18.1953C117.228 18.1953 116.619 17.9512 116.209 17.4629C115.799 16.9746 115.594 16.2812 115.594 15.3828V8.83008H113.67V7.43359H115.594V4.875H117.4ZM138.098 13.0977C138.02 14.6732 137.629 15.9167 136.926 16.8281C136.223 17.7396 135.282 18.1953 134.104 18.1953C132.886 18.1953 132.105 17.6484 131.76 16.5547C131.408 17.1081 131.005 17.5215 130.549 17.7949C130.1 18.0618 129.634 18.1953 129.152 18.1953C128.228 18.1953 127.528 17.8177 127.053 17.0625C126.577 16.3073 126.402 15.2624 126.525 13.9277C126.623 12.8535 126.867 11.8965 127.258 11.0566C127.655 10.2103 128.163 9.54622 128.781 9.06445C129.406 8.58268 130.061 8.3418 130.744 8.3418C131.271 8.3418 131.743 8.41341 132.16 8.55664C132.577 8.69336 133.046 8.9668 133.566 9.37695L133.059 14.7871C132.935 16.291 133.352 17.043 134.309 17.043C135.044 17.043 135.64 16.6784 136.096 15.9492C136.551 15.2201 136.799 14.2695 136.838 13.0977C136.962 10.5651 136.49 8.63477 135.422 7.30664C134.361 5.97852 132.743 5.31445 130.568 5.31445C129.26 5.31445 128.098 5.63997 127.082 6.29102C126.066 6.93555 125.266 7.86979 124.68 9.09375C124.094 10.3177 123.765 11.7305 123.693 13.332C123.615 14.9466 123.811 16.3496 124.279 17.541C124.748 18.7259 125.461 19.6309 126.418 20.2559C127.382 20.8874 128.544 21.2031 129.904 21.2031C130.49 21.2031 131.076 21.1315 131.662 20.9883C132.255 20.8451 132.746 20.6595 133.137 20.4316L133.498 21.5547C133.094 21.8086 132.557 22.0169 131.887 22.1797C131.223 22.3424 130.549 22.4238 129.865 22.4238C128.238 22.4238 126.838 22.056 125.666 21.3203C124.494 20.5911 123.615 19.5365 123.029 18.1562C122.45 16.7826 122.199 15.1745 122.277 13.332C122.355 11.5417 122.756 9.93359 123.479 8.50781C124.201 7.07552 125.181 5.97201 126.418 5.19727C127.655 4.41602 129.051 4.02539 130.607 4.02539C132.229 4.02539 133.618 4.38997 134.777 5.11914C135.936 5.84831 136.799 6.89974 137.365 8.27344C137.932 9.64714 138.176 11.2552 138.098 13.0977ZM128.078 13.9277C127.987 14.8522 128.072 15.5618 128.332 16.0566C128.599 16.5514 129.019 16.7988 129.592 16.7988C129.982 16.7988 130.357 16.6328 130.715 16.3008C131.079 15.9688 131.379 15.4935 131.613 14.875L131.623 14.7871L132.072 9.875C131.708 9.6862 131.317 9.5918 130.9 9.5918C130.139 9.5918 129.507 9.97917 129.006 10.7539C128.511 11.5286 128.202 12.5866 128.078 13.9277ZM141.031 12.6289C141.031 10.9818 141.412 9.67318 142.174 8.70312C142.936 7.72656 143.945 7.23828 145.201 7.23828C146.49 7.23828 147.496 7.69401 148.219 8.60547L148.307 7.43359H149.957V17.7461C149.957 19.1133 149.55 20.1908 148.736 20.9785C147.929 21.7663 146.842 22.1602 145.475 22.1602C144.713 22.1602 143.967 21.9974 143.238 21.6719C142.509 21.3464 141.952 20.9004 141.568 20.334L142.506 19.25C143.281 20.207 144.228 20.6855 145.348 20.6855C146.227 20.6855 146.91 20.4382 147.398 19.9434C147.893 19.4486 148.141 18.752 148.141 17.8535V16.9453C147.418 17.7786 146.432 18.1953 145.182 18.1953C143.945 18.1953 142.942 17.6973 142.174 16.7012C141.412 15.7051 141.031 14.3477 141.031 12.6289ZM142.848 12.834C142.848 14.0254 143.092 14.9629 143.58 15.6465C144.068 16.3236 144.752 16.6621 145.631 16.6621C146.77 16.6621 147.607 16.1445 148.141 15.1094V10.2852C147.587 9.27604 146.757 8.77148 145.65 8.77148C144.771 8.77148 144.085 9.11328 143.59 9.79688C143.095 10.4805 142.848 11.4928 142.848 12.834ZM155.391 7.43359L155.439 8.60547C156.214 7.69401 157.259 7.23828 158.574 7.23828C160.052 7.23828 161.058 7.80469 161.592 8.9375C161.943 8.42969 162.399 8.01953 162.959 7.70703C163.525 7.39453 164.193 7.23828 164.961 7.23828C167.279 7.23828 168.457 8.46549 168.496 10.9199V18H166.689V11.0273C166.689 10.2721 166.517 9.70898 166.172 9.33789C165.827 8.96029 165.247 8.77148 164.434 8.77148C163.763 8.77148 163.206 8.97331 162.764 9.37695C162.321 9.77409 162.064 10.3112 161.992 10.9883V18H160.176V11.0762C160.176 9.53971 159.424 8.77148 157.92 8.77148C156.735 8.77148 155.924 9.27604 155.488 10.2852V18H153.682V7.43359H155.391ZM178.754 18C178.65 17.7917 178.565 17.4206 178.5 16.8867C177.66 17.7591 176.658 18.1953 175.492 18.1953C174.451 18.1953 173.594 17.9023 172.924 17.3164C172.26 16.724 171.928 15.9753 171.928 15.0703C171.928 13.9701 172.344 13.1172 173.178 12.5117C174.018 11.8997 175.196 11.5938 176.713 11.5938H178.471V10.7637C178.471 10.1322 178.282 9.63086 177.904 9.25977C177.527 8.88216 176.97 8.69336 176.234 8.69336C175.59 8.69336 175.049 8.85612 174.613 9.18164C174.177 9.50716 173.959 9.90104 173.959 10.3633H172.143C172.143 9.83594 172.328 9.32812 172.699 8.83984C173.077 8.34505 173.585 7.95443 174.223 7.66797C174.867 7.38151 175.574 7.23828 176.342 7.23828C177.559 7.23828 178.513 7.54427 179.203 8.15625C179.893 8.76172 180.251 9.59831 180.277 10.666V15.5293C180.277 16.4993 180.401 17.2708 180.648 17.8438V18H178.754ZM175.756 16.623C176.322 16.623 176.859 16.4766 177.367 16.1836C177.875 15.8906 178.243 15.5098 178.471 15.041V12.873H177.055C174.841 12.873 173.734 13.5208 173.734 14.8164C173.734 15.3828 173.923 15.8255 174.301 16.1445C174.678 16.4635 175.163 16.623 175.756 16.623ZM186.072 18H184.266V7.43359H186.072V18ZM184.119 4.63086C184.119 4.33789 184.207 4.09049 184.383 3.88867C184.565 3.68685 184.832 3.58594 185.184 3.58594C185.535 3.58594 185.802 3.68685 185.984 3.88867C186.167 4.09049 186.258 4.33789 186.258 4.63086C186.258 4.92383 186.167 5.16797 185.984 5.36328C185.802 5.55859 185.535 5.65625 185.184 5.65625C184.832 5.65625 184.565 5.55859 184.383 5.36328C184.207 5.16797 184.119 4.92383 184.119 4.63086ZM191.936 18H190.129V3H191.936V18ZM195.875 17.0527C195.875 16.7402 195.966 16.4798 196.148 16.2715C196.337 16.0632 196.617 15.959 196.988 15.959C197.359 15.959 197.639 16.0632 197.828 16.2715C198.023 16.4798 198.121 16.7402 198.121 17.0527C198.121 17.3522 198.023 17.6029 197.828 17.8047C197.639 18.0065 197.359 18.1074 196.988 18.1074C196.617 18.1074 196.337 18.0065 196.148 17.8047C195.966 17.6029 195.875 17.3522 195.875 17.0527ZM206.348 16.7207C206.992 16.7207 207.555 16.5254 208.037 16.1348C208.519 15.7441 208.786 15.2559 208.838 14.6699H210.547C210.514 15.2754 210.306 15.8516 209.922 16.3984C209.538 16.9453 209.023 17.3815 208.379 17.707C207.741 18.0326 207.064 18.1953 206.348 18.1953C204.909 18.1953 203.763 17.7168 202.91 16.7598C202.064 15.7962 201.641 14.4811 201.641 12.8145V12.5117C201.641 11.4831 201.829 10.5684 202.207 9.76758C202.585 8.9668 203.125 8.34505 203.828 7.90234C204.538 7.45964 205.374 7.23828 206.338 7.23828C207.523 7.23828 208.506 7.5931 209.287 8.30273C210.075 9.01237 210.495 9.93359 210.547 11.0664H208.838C208.786 10.3828 208.525 9.82292 208.057 9.38672C207.594 8.94401 207.021 8.72266 206.338 8.72266C205.42 8.72266 204.707 9.05469 204.199 9.71875C203.698 10.3763 203.447 11.3301 203.447 12.5801V12.9219C203.447 14.1393 203.698 15.0768 204.199 15.7344C204.701 16.3919 205.417 16.7207 206.348 16.7207ZM213.1 12.6191C213.1 11.584 213.301 10.653 213.705 9.82617C214.115 8.99935 214.682 8.36133 215.404 7.91211C216.133 7.46289 216.964 7.23828 217.895 7.23828C219.333 7.23828 220.495 7.73633 221.381 8.73242C222.273 9.72852 222.719 11.0534 222.719 12.707V12.834C222.719 13.8626 222.52 14.7871 222.123 15.6074C221.732 16.4212 221.169 17.056 220.434 17.5117C219.704 17.9674 218.865 18.1953 217.914 18.1953C216.482 18.1953 215.32 17.6973 214.428 16.7012C213.542 15.7051 213.1 14.3867 213.1 12.7461V12.6191ZM214.916 12.834C214.916 14.0059 215.186 14.9466 215.727 15.6562C216.273 16.3659 217.003 16.7207 217.914 16.7207C218.832 16.7207 219.561 16.3626 220.102 15.6465C220.642 14.9238 220.912 13.9147 220.912 12.6191C220.912 11.4603 220.635 10.5228 220.082 9.80664C219.535 9.08398 218.806 8.72266 217.895 8.72266C217.003 8.72266 216.283 9.07747 215.736 9.78711C215.189 10.4967 214.916 11.5124 214.916 12.834ZM227.684 7.43359L227.732 8.60547C228.507 7.69401 229.552 7.23828 230.867 7.23828C232.345 7.23828 233.351 7.80469 233.885 8.9375C234.236 8.42969 234.692 8.01953 235.252 7.70703C235.818 7.39453 236.486 7.23828 237.254 7.23828C239.572 7.23828 240.75 8.46549 240.789 10.9199V18H238.982V11.0273C238.982 10.2721 238.81 9.70898 238.465 9.33789C238.12 8.96029 237.54 8.77148 236.727 8.77148C236.056 8.77148 235.499 8.97331 235.057 9.37695C234.614 9.77409 234.357 10.3112 234.285 10.9883V18H232.469V11.0762C232.469 9.53971 231.717 8.77148 230.213 8.77148C229.028 8.77148 228.217 9.27604 227.781 10.2852V18H225.975V7.43359H227.684Z" fill="#323232"/>
<path d="M18.2421 4.38281H1.75772C1.48714 4.38281 1.23382 4.44934 1.00464 4.55898L9.96085 13.5152L11.9682 11.586C11.9682 11.586 11.9684 11.5858 11.9684 11.5857C11.9685 11.5857 11.9686 11.5856 11.9686 11.5856L18.9955 4.55914C18.7662 4.44941 18.5128 4.38281 18.2421 4.38281Z" fill="#323232"/>
<path d="M19.824 5.38776L13.2114 12L19.8238 18.6124C19.9335 18.3832 20 18.1299 20 17.8593V6.14057C20 5.87014 19.9336 5.61686 19.824 5.38776Z" fill="#323232"/>
<path d="M0.176172 5.38757C0.0665234 5.61675 0 5.87007 0 6.14066V17.8594C0 18.1298 0.0664453 18.3832 0.176016 18.6123L6.78863 12L0.176172 5.38757Z" fill="#323232"/>
<path d="M12.3828 12.8286L10.3752 14.758C10.2607 14.8725 10.1108 14.9297 9.96092 14.9297C9.81104 14.9297 9.66108 14.8725 9.54666 14.758L7.61713 12.8286L1.00439 19.4409C1.23361 19.5506 1.48709 19.6172 1.75775 19.6172H18.2421C18.5127 19.6172 18.766 19.5507 18.9952 19.441L12.3828 12.8286Z" fill="#323232"/>
</svg>
